Simulation
nRows=27
nColumns=15
endheader
time  TH_x TH_y TH_z SC_y  SC_z  SC_x  AC_y  AC_z  AC_x  GH_y  GH_z  GH_yy  EL_x  PS_y
0.0  0.000000  0.000000  0.000000  -39.669477081952415  8.328989456863312  7.105304648342015  43.69745472502192  1.4295177651836275  -1.157996919103623  -18.211956348900685  -1.0588963128014035  42.591559168154326  23.536435207477243  120.000000
0.028900000000000006  0.000000  0.000000  0.000000  -39.76551133219121  7.8859043507536395  6.925030442588994  43.67859247763001  2.1734364020842123  -1.1998959314309936  -17.855124155227983  -0.5266170294781095  42.435541091051974  23.075121189075368  120.000000
0.05780000000000001  0.000000  0.000000  0.000000  -39.80962324701592  7.4323473057591904  6.670259082776929  43.650198410157905  2.7902444402300475  -1.274826321840381  -17.468420229822833  -0.10226392768291592  42.308705112147955  22.67822616897912  120.000000
0.08670000000000001  0.000000  0.000000  0.000000  -39.8238367930551  7.080353771229971  6.33390247984429  43.53388202224026  3.2433440963965667  -1.3657310624568644  -17.040780709659614  0.18736306694246418  42.21970416312724  22.389274243792457  120.000000
0.11560000000000002  0.000000  0.000000  0.000000  -39.85295799705663  6.854852187660856  5.938849170652185  43.318678601011136  3.5409761535740203  -1.4540057602417882  -16.594923983101776  0.34682570245437105  42.14302666875484  22.200421680576895  120.000000
0.14450000000000002  0.000000  0.000000  0.000000  -39.9293504178568  6.734886374975096  5.5298647271824946  43.06578651969971  3.721327999361577  -1.5146327677270646  -16.17613582748084  0.40923456412090403  42.030182612147165  22.082800929472462  120.000000
0.17340000000000003  0.000000  0.000000  0.000000  -40.071698640442754  6.688027618899633  5.162014672672777  42.86860243808721  3.829097462477416  -1.5093099650558128  -15.823394029919886  0.4333027109139182  41.83870305571406  22.009133141108048  120.000000
0.20230000000000004  0.000000  0.000000  0.000000  -40.29392785375032  6.67274755238069  4.886564273882369  42.83649867972204  3.907542013213075  -1.390850529004117  -15.578127342366706  0.4937434939777986  41.52402032545416  21.951221759582573  120.000000
0.23120000000000004  0.000000  0.000000  0.000000  -40.61218928276318  6.6409242116116785  4.738983335956994  43.059276175766094  3.992289846773021  -1.1152580445783091  -15.47344309342314  0.6738649706333797  41.05151087853909  21.87800890051565  120.000000
0.26010000000000005  0.000000  0.000000  0.000000  -41.037349231292694  6.558486994531736  4.724358151651727  43.58143211321815  4.100021465649805  -0.6621628237486076  -15.519843783527682  1.055905102149798  40.41236409419474  21.769837712652514  120.000000
0.28900000000000003  0.000000  0.000000  0.000000  -41.55228681526544  6.428215668476324  4.802793665494888  44.378502863605604  4.2179966905086825  -0.052512645236257  -15.694065390626216  1.713852689695743  39.635783160746996  21.64236549320155  120.000000
0.31790000000000007  0.000000  0.000000  0.000000  -42.096880802542195  6.290715818482598  4.892359461909925  45.31883302315351  4.305929323819431  0.6510948773396589  -15.930125405753792  2.7078898658710133  38.79667237198984  21.557823852866274  120.000000
0.34680000000000005  0.000000  0.000000  0.000000  -42.58177847710114  6.202287413924997  4.896691008677264  46.20187918301006  4.318423308056338  1.3622225752102162  -16.13627292661  4.0749060761516045  37.99253788696011  21.607485368068737  120.000000
0.3757000000000001  0.000000  0.000000  0.000000  -42.93155837086105  6.207784928325551  4.750796963045095  46.850026414237526  4.236777464704204  2.004919219725208  -16.22226365215728  5.806946621016283  37.302615716114595  21.857142459063542  120.000000
0.40460000000000007  0.000000  0.000000  0.000000  -43.128122528602276  6.322223973578705  4.457072430416138  47.19396658881533  4.086579593045075  2.543652133063701  -16.139403791327684  7.830532705464279  36.73069147348299  22.29410520714589  120.000000
0.4335000000000001  0.000000  0.000000  0.000000  -43.225320173013976  6.527011995950994  4.083139590575136  47.287990252762036  3.9342732476737  2.987186413120751  -15.89274848377706  10.013730490461231  36.184084156788664  22.82468949170852  120.000000
0.4624000000000001  0.000000  0.000000  0.000000  -43.32278424347522  6.784175241842928  3.724395229434548  47.262018752760554  3.861709793781554  3.3728333662377628  -15.51541675138585  12.209231531739398  35.51236286148938  23.318819321153136  120.000000
0.49130000000000007  0.000000  0.000000  0.000000  -43.51477028188537  7.055981639451619  3.4630915119290795  47.245886089839836  3.9365244709110665  3.744408364803917  -15.036062838379953  14.298969602839726  34.57167252172322  23.66483797325494  120.000000
0.5202000000000001  0.000000  0.000000  0.000000  -43.84728145171792  7.317477497808327  3.3431340105853713  47.31553421690711  4.193370354971199  4.131303681778871  -14.464227008920298  16.21912606036452  33.2756641449748  23.80826786583671  120.000000
0.5491000000000001  0.000000  0.000000  0.000000  -44.308823500758514  7.563157559607029  3.3642631219459367  47.47799142453179  4.627492770849986  4.540451540911729  -13.790059792303202  17.961943849432377  31.61977926257994  23.75760023071613  120.000000
0.5780000000000001  0.000000  0.000000  0.000000  -44.85022517825382  7.80492740994181  3.493233870531946  47.68640136904559  5.203236548795717  4.961095106902703  -12.995756332256773  19.557253843532912  29.67095665532521  23.564347391375023  120.000000
0.6069000000000001  0.000000  0.000000  0.000000  -45.41353236175269  8.061878118770096  3.6826043354103786  47.87162184448843  5.8702988740072675  5.37581365653019  -12.069873217657248  21.051669691437244  27.53663018181261  23.29517586935542  120.000000
0.6358000000000001  0.000000  0.000000  0.000000  -45.954170674015174  8.349150674956656  3.8887322543014986  47.97454679040363  6.580941949753749  5.770957314845534  -11.016009758659363  22.49041231417138  25.327915605362538  23.006811992079843  120.000000
0.6647000000000002  0.000000  0.000000  0.000000  -46.45072718305271  8.671057594827124  4.0835396992820625  47.967109265944735  7.3016994768447825  6.143030273259186  -9.856469736954148  23.905534098705523  23.130428926625097  22.73235963951054  120.000000
0.6936000000000001  0.000000  0.000000  0.000000  -46.902948112313894  9.021191794305404  4.256747546674522  47.85583581210107  8.01626919881485  6.499081546765768  -8.627418256393657  25.3133742532331  20.992744658644032  22.481479072008995  120.000000
0.7225000000000001  0.000000  0.000000  0.000000  -47.3240832607076  9.386934517298998  4.412955456794614  47.67144153117788  8.722115987901756  6.852641307810449  -7.370029381344836  26.716363003689914  18.93095665985928  22.248747570204298  120.000000
0.7514000000000002  0.000000  0.000000  0.000000  -47.73378183034347  9.754743650715548  4.5666800734849975  47.4544916386508  9.424269270410104  7.219165117046484  -6.1219655817665695  28.1068749877038  16.938621674144116  22.02260709257588  120.000000
